PathFileType	4	(X/Y/Z)	C:\Users\86182\Documents\cortex\Trimmed_M3_H16.trc
DataRate	CameraRate	NumFrames	NumMarkers	Units	OrigDataRate	OrigDataStartFrame	OrigNumFrames
100.00	100.00	       98	2	mm	100.00	361	       901
Frame#	Time	gripper			box			
		X1	Y1	Z1	X2	Y2	Z2	

361	3.600	268.10654	173.26564	289.88116	268.49069	171.47391	153.82143	
362	3.610	268.20236	173.20515	290.15796	268.51425	171.47810	154.14194	
363	3.620	268.33856	173.11702	290.39606	268.53381	171.48476	154.44798	
364	3.630	268.51245	173.00197	290.59842	268.54883	171.49318	154.73418	
365	3.640	268.70508	172.87450	290.77527	268.55814	171.50166	154.99498	
366	3.650	268.87375	172.76665	290.94690	268.56052	171.50801	155.22789	
367	3.660	268.96030	172.71985	291.13943	268.55823	171.50954	155.43344	
368	3.670	268.93338	172.75636	291.36633	268.55734	171.50354	155.61349	
369	3.680	268.81946	172.85951	291.61603	268.56427	171.48915	155.77007	
370	3.690	268.67279	172.99216	291.86377	268.58182	171.46832	155.90448	
371	3.700	268.53247	173.12344	292.08823	268.60849	171.44545	156.01797	
372	3.710	268.41489	173.23561	292.27582	268.63919	171.42610	156.11263	
373	3.720	268.32339	173.32118	292.42065	268.66766	171.41508	156.19159	
374	3.730	268.25558	173.37988	292.52390	268.68860	171.41449	156.25865	
375	3.740	268.20676	173.41524	292.59143	268.69904	171.42308	156.31718	
376	3.750	268.17181	173.43240	292.63129	268.69873	171.43779	156.36916	
377	3.760	268.14648	173.43680	292.65146	268.68970	171.45515	156.41460	
378	3.770	268.12802	173.43344	292.65891	268.67599	171.47194	156.45184	
379	3.780	268.11530	173.42650	292.65878	268.66296	171.48512	156.47882	
380	3.790	268.10818	173.41896	292.65460	268.65573	171.49252	156.49437	
381	3.800	268.10675	173.41269	292.64856	268.65750	171.49323	156.49887	
382	3.810	268.11032	173.40852	292.64212	268.66898	171.48778	156.49409	
383	3.820	268.11752	173.40657	292.63632	268.68878	171.47768	156.48276	
384	3.830	268.12671	173.40649	292.63190	268.71381	171.46513	156.46808	
385	3.840	268.13641	173.40784	292.62933	268.73996	171.45255	156.45332	
386	3.850	268.14560	173.41013	292.62878	268.76355	171.44179	156.44102	
387	3.860	268.15344	173.41289	292.63022	268.78223	171.43375	156.43219	
388	3.870	268.15909	173.41551	292.63333	268.79489	171.42825	156.42632	
389	3.880	268.16147	173.41728	292.63745	268.80106	171.42432	156.42163	
390	3.890	268.15927	173.41718	292.64120	268.80020	171.42056	156.41557	
391	3.900	268.15070	173.41385	292.64258	268.79141	171.41539	156.40492	
392	3.910	268.13364	173.40567	292.63861	268.77353	171.40723	156.38638	
393	3.920	268.10632	173.39093	292.62534	268.74548	171.39485	156.35713	
394	3.930	268.06790	173.36829	292.59842	268.70721	171.37782	156.31575	
395	3.940	268.01862	173.33727	292.55414	268.65988	171.35681	156.26324	
396	3.950	267.96033	173.29893	292.49136	268.60547	171.33322	156.20294	
397	3.960	267.89767	173.25641	292.41327	268.54660	171.30864	156.13969	
398	3.970	267.83725	173.21434	292.32770	268.48694	171.28490	156.07878	
399	3.980	267.78525	173.17744	292.24533	268.43192	171.26442	156.02518	
400	3.990	267.74536	173.14882	292.17618	268.38812	171.24960	155.98289	
401	4.000	267.71866	173.12904	292.12598	268.36111	171.24159	155.95412	
402	4.010	267.70441	173.11658	292.09555	268.35321	171.23955	155.93875	
403	4.020	267.70120	173.10878	292.08215	268.36261	171.24097	155.93484	
404	4.030	267.70718	173.10324	292.08136	268.38379	171.24307	155.93930	
405	4.040	267.71921	173.09857	292.08823	268.40921	171.24387	155.94870	
406	4.050	267.73318	173.09441	292.09796	268.43134	171.24246	155.95963	
407	4.060	267.74481	173.09102	292.10626	268.44464	171.23904	155.96909	
408	4.070	267.75101	173.08902	292.11017	268.44666	171.23456	155.97502	
409	4.080	267.75079	173.08888	292.10883	268.43814	171.23051	155.97685	
410	4.090	267.74536	173.09058	292.10345	268.42227	171.22836	155.97522	
411	4.100	267.73721	173.09355	292.09656	268.40332	171.22885	155.97144	
412	4.110	267.72873	173.09712	292.09048	268.38589	171.23149	155.96710	
413	4.120	267.72165	173.10075	292.08673	268.37411	171.23518	155.96368	
414	4.130	267.71698	173.10405	292.08588	268.37067	171.23891	155.96225	
415	4.140	267.71536	173.10655	292.08789	268.37610	171.24203	155.96326	
416	4.150	267.71710	173.10786	292.09210	268.38864	171.24428	155.96648	
417	4.160	267.72156	173.10791	292.09735	268.40479	171.24579	155.97092	
418	4.170	267.72696	173.10703	292.10211	268.42007	171.24673	155.97504	
419	4.180	267.73099	173.10574	292.10468	268.42987	171.24706	155.97725	
420	4.190	267.73215	173.10443	292.10388	268.43085	171.24660	155.97667	
421	4.200	267.73053	173.10327	292.09991	268.42267	171.24553	155.97363	
422	4.210	267.72736	173.10223	292.09430	268.40842	171.24413	155.96942	
423	4.220	267.72433	173.10114	292.08899	268.39304	171.24236	155.96547	
424	4.230	267.72266	173.09981	292.08533	268.38135	171.23965	155.96278	
425	4.240	267.72302	173.09810	292.08417	268.37643	171.23538	155.96199	
426	4.250	267.72562	173.09598	292.08575	268.37900	171.22928	155.96321	
427	4.260	267.73016	173.09349	292.08984	268.38766	171.22208	155.96605	
428	4.270	267.73599	173.09096	292.09567	268.39969	171.21530	155.96965	
429	4.280	267.74194	173.08890	292.10199	268.41241	171.21080	155.97292	
430	4.290	267.74652	173.08797	292.10709	268.42377	171.20995	155.97488	
431	4.300	267.74838	173.08849	292.10938	268.43198	171.21309	155.97490	
432	4.310	267.74689	173.09035	292.10797	268.43549	171.21971	155.97279	
433	4.320	267.74240	173.09306	292.10315	268.43311	171.22859	155.96884	
434	4.330	267.73608	173.09608	292.09628	268.42487	171.23805	155.96393	
435	4.340	267.72955	173.09897	292.08954	268.41257	171.24634	155.95918	
436	4.350	267.72409	173.10133	292.08466	268.39920	171.25204	155.95570	
437	4.360	267.72052	173.10292	292.08273	268.38788	171.25439	155.95424	
438	4.370	267.71942	173.10347	292.08395	268.38089	171.25325	155.95496	
439	4.380	267.72113	173.10286	292.08780	268.37903	171.24896	155.95766	
440	4.390	267.72528	173.10132	292.09320	268.38165	171.24223	155.96178	
441	4.400	267.73056	173.09935	292.09879	268.38708	171.23421	155.96640	
442	4.410	267.73514	173.09760	292.10275	268.39319	171.22635	155.97034	
443	4.420	267.73746	173.09647	292.10376	268.39810	171.22015	155.97263	
444	4.430	267.73700	173.09602	292.10138	268.40070	171.21687	155.97289	
445	4.440	267.73425	173.09618	292.09647	268.40097	171.21693	155.97134	
446	4.450	267.73035	173.09676	292.09045	268.39990	171.21970	155.96860	
447	4.460	267.72641	173.09750	292.08463	268.39871	171.22386	155.96535	
448	4.470	267.72308	173.09822	292.07977	268.39832	171.22823	155.96219	
449	4.480	267.72064	173.09883	292.07623	268.39917	171.23204	155.95946	
450	4.490	267.71890	173.09929	292.07410	268.40143	171.23477	155.95740	
451	4.500	267.71765	173.09964	292.07318	268.40475	171.23618	155.95619	
452	4.510	267.71661	173.10002	292.07315	268.40799	171.23640	155.95584	
453	4.520	267.71545	173.10057	292.07373	268.40952	171.23598	155.95610	
454	4.530	267.71396	173.10143	292.07465	268.40799	171.23546	155.95668	
455	4.540	267.71194	173.10265	292.07574	268.40268	171.23531	155.95732	
456	4.550	267.70950	173.10419	292.07693	268.39383	171.23593	155.95772	
457	4.560	267.70688	173.10588	292.07806	268.38287	171.23766	155.95767	
458	4.570	267.70462	173.10735	292.07904	268.37213	171.24030	155.95714	
